<svg width="67" height="19" viewBox="0 0 67 19" fill="none" xmlns="http://www.w3.org/2000/svg">
<path d="M6.328 18.28C5.11467 18.28 4.2 17.9533 3.584 17.3C2.98667 16.628 2.688 15.8067 2.688 14.836V6.492H0.476L0.728 4.168H2.688V0.892L5.6 0.611999V4.168H8.988V6.492H5.6V13.352C5.6 14.2107 5.64667 14.808 5.74 15.144C5.852 15.4613 6.06667 15.6667 6.384 15.76C6.70133 15.8533 7.29867 15.9 8.176 15.9H8.932L8.708 18.28H6.328ZM17.7769 18.28C16.1903 18.28 14.8276 17.9533 13.6889 17.3C12.5689 16.6467 11.7196 15.7693 11.1409 14.668C10.5809 13.5667 10.3009 12.3347 10.3009 10.972C10.3009 9.684 10.5623 8.508 11.0849 7.444C11.6263 6.36133 12.4009 5.50267 13.4089 4.868C14.4356 4.23333 15.6489 3.916 17.0489 3.916C18.8783 3.916 20.3343 4.45733 21.4169 5.54C22.4996 6.604 23.0409 8.032 23.0409 9.824C23.0409 10.3093 22.9849 10.832 22.8729 11.392H13.2969C13.4836 12.9413 13.9969 14.0613 14.8369 14.752C15.6956 15.4427 16.7783 15.788 18.0849 15.788C19.5596 15.788 20.9129 15.4707 22.1449 14.836L22.4249 17.216C20.9316 17.9253 19.3823 18.28 17.7769 18.28ZM20.0449 9.404C20.0449 8.52667 19.7929 7.808 19.2889 7.248C18.7849 6.688 18.0289 6.408 17.0209 6.408C15.1356 6.408 13.9503 7.40667 13.4649 9.404H20.0449ZM28.6044 18.28C27.3911 18.28 26.3924 17.9067 25.6084 17.16C24.8431 16.4133 24.4604 15.4333 24.4604 14.22C24.4604 13.0067 24.8804 12.036 25.7204 11.308C26.5791 10.58 27.6151 10.0667 28.8284 9.768C30.0417 9.45067 31.2737 9.28267 32.5244 9.264C32.5057 8.2 32.2724 7.472 31.8244 7.08C31.3951 6.66933 30.6951 6.464 29.7244 6.464C29.1271 6.464 28.5297 6.55733 27.9324 6.744C27.3537 6.912 26.7097 7.21067 26.0004 7.64L25.6644 5.26C26.3551 4.83067 27.1111 4.504 27.9324 4.28C28.7724 4.03733 29.6311 3.916 30.5084 3.916C32.2257 3.916 33.4764 4.38267 34.2604 5.316C35.0444 6.24933 35.4364 7.836 35.4364 10.076V13.296C35.4364 14.024 35.4644 14.5653 35.5204 14.92C35.5951 15.2747 35.7257 15.5267 35.9124 15.676C36.1177 15.8253 36.4351 15.9 36.8644 15.9H37.2004L36.8644 18.28H36.2204C35.2497 18.28 34.5124 18.1307 34.0084 17.832C33.5231 17.5333 33.1311 17.0667 32.8324 16.432C32.3284 17.0107 31.7124 17.468 30.9844 17.804C30.2564 18.1213 29.4631 18.28 28.6044 18.28ZM29.5004 15.984C30.0417 15.984 30.5831 15.8533 31.1244 15.592C31.6844 15.3307 32.1511 14.9667 32.5244 14.5V11.252C29.1644 11.364 27.4844 12.3067 27.4844 14.08C27.4844 15.3493 28.1564 15.984 29.5004 15.984ZM55.0443 3.916C56.8363 3.916 58.1803 4.43867 59.0763 5.484C59.9723 6.52933 60.4203 8.05067 60.4203 10.048V18H57.4803V10.16C57.4803 8.85333 57.2469 7.90133 56.7803 7.304C56.3136 6.70667 55.5576 6.408 54.5123 6.408C52.3469 6.408 51.2643 7.64933 51.2643 10.132V18H48.3243V10.44C48.3243 8.984 48.0723 7.948 47.5683 7.332C47.0643 6.716 46.3176 6.408 45.3283 6.408C43.8909 6.408 42.8083 6.912 42.0803 7.92V18H39.1683V4.168H41.5483L41.7723 5.484C43.0416 4.43867 44.4509 3.916 46.0003 3.916C47.9789 3.916 49.3976 4.70933 50.2563 6.296C51.2643 4.70933 52.8603 3.916 55.0443 3.916Z" fill="#25313C"/>
<path d="M63.3049 14.668H66.6089V18H63.3049V14.668Z" fill="#0BBEF2"/>
</svg>
